<svg id="calendar" xmlns="http://www.w3.org/2000/svg" width="13.454" height="13.454" viewBox="0 0 13.454 13.454">
  <g id="Group_155" data-name="Group 155">
    <g id="Group_154" data-name="Group 154">
      <path id="Path_156" data-name="Path 156" d="M11.877,1.051h-.631V0H10.2V1.051H3.258V0H2.207V1.051H1.577A1.578,1.578,0,0,0,0,2.628v9.249a1.578,1.578,0,0,0,1.577,1.577h10.3a1.578,1.578,0,0,0,1.577-1.577V2.628A1.578,1.578,0,0,0,11.877,1.051ZM12.4,11.877a.526.526,0,0,1-.526.526H1.577a.526.526,0,0,1-.526-.526V4.94H12.4Zm0-7.988H1.051V2.628A.526.526,0,0,1,1.577,2.1h.631V3.153H3.258V2.1H10.2V3.153h1.051V2.1h.631a.526.526,0,0,1,.526.526Z" fill="#ccc"/>
    </g>
  </g>
</svg>
