<?xml version="1.0" encoding="utf-8"?>
<!-- Generator: Adobe Illustrator 24.0.2, SVG Export Plug-In . SVG Version: 6.00 Build 0)  -->
<svg version="1.1" id="Layer_1" xmlns="http://www.w3.org/2000/svg" xmlns:xlink="http://www.w3.org/1999/xlink" x="0px" y="0px"
	 viewBox="0 0 16 16" style="enable-background:new 0 0 16 16;" xml:space="preserve">
<style type="text/css">
	.st0{fill:#CCCCCC;}
	.st1{fill:#606060;}
</style>
<path id="Path_186" class="st1" d="M15.3,3h-4.1V2.5c0-0.8-0.6-1.4-1.4-1.4H6.2c-0.8,0-1.4,0.6-1.4,1.4V3H0.7C0.4,3,0.2,3.2,0.2,3.4
	v10.1c0,0.8,0.6,1.4,1.4,1.4h12.9c0.8,0,1.4-0.6,1.4-1.4v-10C15.8,3.2,15.6,3,15.3,3C15.4,3,15.4,3,15.3,3L15.3,3z M5.7,2.5
	c0-0.3,0.2-0.5,0.5-0.5h3.7c0.3,0,0.5,0.2,0.5,0.5V3H5.7V2.5z M14.7,3.9l-1.4,4.3c-0.1,0.2-0.2,0.3-0.4,0.3h-2.6V8
	c0-0.3-0.2-0.5-0.5-0.5l0,0H6.2C5.9,7.5,5.7,7.7,5.7,8l0,0v0.5H3.1c-0.2,0-0.4-0.1-0.4-0.3L1.3,3.9H14.7z M9.4,8.5v0.9H6.6V8.5H9.4z
	 M14.9,13.5c0,0.3-0.2,0.5-0.5,0.5H1.6c-0.3,0-0.5-0.2-0.5-0.5V6.2l0.7,2.2C2,9,2.6,9.4,3.1,9.4h2.6v0.5c0,0.3,0.2,0.5,0.5,0.5l0,0
	h3.7c0.3,0,0.5-0.2,0.5-0.5l0,0V9.4h2.6c0.6,0,1.1-0.4,1.3-0.9l0.7-2.2L14.9,13.5z"/>
</svg>
